<?xml version="1.0" encoding="UTF-8"?>
<svg id="Ebene_1" data-name="Ebene 1" xmlns="http://www.w3.org/2000/svg" viewBox="0 0 1149.36 920.94">
  <defs>
    <style>
      .cls-1 {
        fill: #5a5a5a;
      }
    </style>
  </defs>
  <path class="cls-1" d="m1098.82,743.93c-.09.97-.59,1.86-1.38,2.43-79.92,59.19-169.36,104.31-264.46,133.41-1.38.42-2.87-.08-3.71-1.26-20.11-27.9-38.15-57.24-53.97-87.79-.92-1.79-.08-3.98,1.8-4.7,28.56-10.74,56.17-23.87,82.52-39.26,2.07-1.24,2.22-4.18.29-5.62-5.58-4.15-11.13-8.51-16.42-12.88-.98-.8-2.32-.96-3.46-.42-171,78.98-358.35,78.98-531.4,0-1.13-.51-2.46-.33-3.42.46-5.29,4.36-10.84,8.68-16.38,12.83-1.92,1.46-1.75,4.4.33,5.62,26.41,15.26,54,28.4,82.48,39.3,1.88.69,2.74,2.87,1.83,4.65-15.56,30.71-33.63,60.09-54.02,87.83-.86,1.14-2.34,1.63-3.71,1.21-94.93-29.2-184.21-74.31-264.04-133.41-.77-.6-1.27-1.5-1.38-2.47-18.42-197.21,19.13-396.89,156.21-601.61.33-.54.83-.97,1.42-1.22,68.55-31.48,140.9-53.91,215.24-66.73,1.38-.22,2.75.43,3.46,1.64,10.08,17.83,19.16,36.2,27.22,55.03,80.12-12.16,161.62-12.16,241.74,0,8-18.78,16.94-37.15,26.79-55.03.68-1.23,2.07-1.89,3.46-1.64,74.33,12.84,146.67,35.27,215.23,66.73.59.24,1.08.69,1.37,1.26,119.41,175.57,178.39,373.61,156.33,601.61Zm-604.47-226.65c.83-58.3-41.68-106.53-95.03-106.53s-95.03,47.81-95.03,106.53,42.93,106.53,95.03,106.53,95.03-47.81,95.03-106.53Zm351.36,0c.83-58.3-41.68-106.53-95.03-106.53s-95.03,47.81-95.03,106.53,42.93,106.53,95.03,106.53,95.03-47.81,95.03-106.53Z"/>
</svg>