<?xml version="1.0" encoding="UTF-8"?>
<svg id="Ebene_1" data-name="Ebene 1" xmlns="http://www.w3.org/2000/svg" viewBox="0 0 1149.36 920.94">
  <defs>
    <style>
      .cls-1 {
        fill: #fff;
      }
    </style>
  </defs>
  <path class="cls-1" d="m851.16,670.97c22.95,22.95,22.95,60.13,0,83.08-11.38,11.48-26.44,17.17-41.49,17.17s-30.07-5.74-41.53-17.21l-193.48-193.38-193.46,193.33c-11.48,11.57-26.51,17.26-41.55,17.26s-30.06-5.69-41.54-17.26c-22.95-22.95-22.95-60.13,0-83.08l193.51-193.51-193.51-193.42c-22.95-22.95-22.95-60.13,0-83.08,22.95-22.95,60.13-22.95,83.08,0l193.47,193.61,193.51-193.51c22.95-22.95,60.13-22.95,83.08,0,22.95,22.95,22.95,60.13,0,83.08l-193.51,193.51,193.42,193.42Z"/>
</svg>