<?xml version="1.0" encoding="UTF-8"?>
<svg id="Ebene_1" data-name="Ebene 1" xmlns="http://www.w3.org/2000/svg" viewBox="0 0 1149.36 920.94">
  <defs>
    <style>
      .cls-1 {
        fill: #5a5a5a;
      }
    </style>
  </defs>
  <path class="cls-1" d="m1065.74,477.8s0,160.84-20.52,237.92c-11.29,42.53-44.57,74.63-86.83,86-76.59,20.65-383.71,20.65-383.71,20.65,0,0-307.12,0-383.71-20.65-42.25-11.37-75.53-43.47-86.83-86-20.52-77.09-20.52-237.92-20.52-237.92,0,0,0-160.84,20.52-237.93,11.29-42.53,44.57-76.02,86.83-87.39,76.59-20.66,383.71-20.66,383.71-20.66,0,0,307.12,0,383.71,20.66,42.25,11.37,75.53,44.86,86.83,87.39,20.52,77.09,20.52,237.93,20.52,237.93Zm-334.81,0l-256.69-146.03v292.06l256.69-146.03Z"/>
</svg>