<?xml version="1.0" encoding="UTF-8"?>
<svg id="Ebene_1" data-name="Ebene 1" xmlns="http://www.w3.org/2000/svg" viewBox="0 0 1149.36 920.94">
  <defs>
    <style>
      .cls-1 {
        fill: #c8463f;
      }
    </style>
  </defs>
  <path class="cls-1" d="m575.49,2.68c8.45,0,16.54,1.83,24.1,5.25l338.62,143.64c39.56,16.78,69.23,55.77,68.88,101.26-.9,180.01-74.27,506.4-384.12,654.76-30.03,14.21-64.92,14.21-94.95,0C218.07,759.24,144.77,432.85,142.27,252.84c1.38-45.5,30.97-84.49,70.49-101.26L551.57,7.93c7.37-3.43,15.65-5.25,23.92-5.25h0Zm0,799.9c246.55-120.13,314.88-386.1,316.5-545.61l-316.5-134.21v679.81Z"/>
</svg>