<?xml version="1.0" encoding="UTF-8"?>
<svg id="Ebene_1" data-name="Ebene 1" xmlns="http://www.w3.org/2000/svg" viewBox="0 0 1149.36 920.94">
  <defs>
    <style>
      .cls-1 {
        fill: #5a5a5a;
      }
    </style>
  </defs>
  <path class="cls-1" d="m977.38,377.48c-79.17.19-156.4-24.5-220.78-70.58v321.39c-.08,225.02-243.73,365.58-438.57,252.99-194.83-112.58-194.73-393.86.19-506.31,56.3-32.48,121.82-45.26,186.2-36.34v161.65c-98.54-31-193.68,56.3-171.25,157.14,22.43,100.84,145.6,139.58,221.71,69.74,27.7-25.42,43.47-61.29,43.46-98.88V0h158.25c-.11,13.36,1.01,26.71,3.35,39.87,11.11,59.37,46.18,111.54,96.95,144.26,35.74,23.63,77.64,36.23,120.49,36.22v157.14Z"/>
</svg>