<?xml version="1.0" encoding="utf-8"?>
<!-- Generator: Adobe Illustrator 27.4.0, SVG Export Plug-In . SVG Version: 6.00 Build 0)  -->
<svg version="1.1" id="Ebene_1" xmlns="http://www.w3.org/2000/svg" xmlns:xlink="http://www.w3.org/1999/xlink" x="0px" y="0px"
	 viewBox="0 0 326.8 740.5" style="enable-background:new 0 0 326.8 740.5;" xml:space="preserve">
<style type="text/css">
	.st0{fill-rule:evenodd;clip-rule:evenodd;fill:#CE5953;}
	.st1{fill-rule:evenodd;clip-rule:evenodd;fill:#FFFFFF;}
</style>
<g id="positiv">
	<path class="st0" d="M0,578.4c10.7,1.4,15.5-9.1,19.8-16.3c13-22.1,26.1-44.2,39.1-66.2c57-96.5,114-192.8,170.9-289.1
		c7-0.1,36.1-1.4,39.8,0.7c2.2,5.7,7.5,8.7,10.8,13.2c4.3,5.9,9.5,10.9,13.9,16.6c2.8,3.6,4.6,8,7.2,11.8
		C211.7,396.6,122,543.9,32.2,691.3H0.3"/>
	<path class="st1" d="M0.3,0C22,2.5,42.2,6.8,60.9,12.7c121.3,38,205.8,121.7,247.2,239.8c6.7,19.1,10.7,39.9,15.1,61.9
		c1,9.2,1.9,18.4,2.9,27.6c1.8,11.1,2.6,33.2,0.7,44.9c-1.8,10.8-0.5,21.1-2.4,31.2c-4.3,23.4-7.9,45-14.4,65.5
		c-16.3,51.7-41.8,90.9-71.8,128.6C196.9,664.2,134.1,705,63,727.4c-16.6,5.2-33.9,8.2-52.8,12c-2.7,0.5-6,0.9-9.9,1.1
		c0-19.6-0.3-37.5,0-55.8v-0.2c0,11.6,0,0.2,0,0.2c29.5-4.3,55.5-12.8,78.5-22.8c83-35.8,140.2-97.9,173.5-183.4
		c25.4-65.2,23.4-156.9-1.7-220.6C214.2,165.3,145.2,98.1,47,67.2c-14.7-4.6-30.3-7.3-46.7-10.2"/>
</g>
</svg>
