<?xml version="1.0" encoding="UTF-8"?>
<svg id="Ebene_1" data-name="Ebene 1" xmlns="http://www.w3.org/2000/svg" viewBox="0 0 1149.36 920.94">
  <defs>
    <style>
      .cls-1 {
        fill: #c8463f;
      }
    </style>
  </defs>
  <path class="cls-1" d="m228.59,748.2C102.97,748.2.02,683.69.02,604.33c0-28.05-5.21-12.95,151.24-326.39,31.92-63.62,122.73-63.39,154.42,0,155.54,310.66,153.07,297.4,153.07,326.39,0,79.31-104.55,143.87-230.17,143.87Zm-129.57-172.64h259.21l-129.84-258.96-129.37,258.96Zm877.63,316.5c0,15.89-12.88,28.77-28.77,28.77H199.78c-15.89,0-28.77-12.88-28.77-28.77,0-47.67,38.66-86.32,86.34-86.32h257.28V275.69c-42.26-18.43-73.95-56.65-83.39-102.95h-204.29c-30.21,0-55.93-25.77-55.93-57.55s25.72-57.55,57.55-57.55h230.9C484.11,22.8,526.84.1,573.81.1s88.12,22.7,114.41,57.55h230.9c30.16,0,55.93,25.77,55.93,57.55s-24.15,57.55-55.93,57.55h-204.29c-9.53,46.4-41.18,84.52-83.44,103.04v529.96h257.34c49.27,0,87.94,38.66,87.92,86.32Zm172.71-287.73c0,79.34-101.33,143.87-228.57,143.87s-230.18-64.5-230.18-143.87c0-28.05-5.21-12.95,151.24-326.39,31.92-63.62,122.73-63.39,154.42,0,155.55,310.75,151.42,297.44,153.09,326.39Zm-102.14-28.77l-129.78-258.96-129.41,258.96h259.19Z"/>
</svg>