<?xml version="1.0" encoding="UTF-8"?>
<svg id="Ebene_1" data-name="Ebene 1" xmlns="http://www.w3.org/2000/svg" viewBox="0 0 1149.36 920.94">
  <defs>
    <style>
      .cls-1 {
        fill: #c8463f;
      }
    </style>
  </defs>
  <path class="cls-1" d="m891.18,386.92v73.55c0,159.87-119.23,292.23-273.34,313.32v60.73h71.93c32.73,0,58.98,27.33,57.47,60.37-.7,14.77-13.92,25.95-28.7,25.95h-287.73c-14.75,0-28-11.15-28.7-25.95-1.58-33.07,24.76-60.37,57.47-60.37h71.93v-63.03c-158.3-21.76-273.34-165.52-273.34-326.75v-57.82c0-22.3,19.33-41.54,43.16-41.54s43.16,19.24,43.16,41.54v64.38c0,119.07,96.42,231.32,215.26,238.82,133.67,8.45,245.11-97.77,245.11-229.64v-73.55c0-22.3,19.24-41.54,43.16-41.54s43.16,19.24,43.16,41.54Zm-489.14,73.55V172.74C402.04,77.37,479.31.1,574.68.1s172.64,77.27,172.64,172.64v287.73c0,95.36-77.27,172.64-172.64,172.64s-172.64-77.33-172.64-172.64Z"/>
</svg>