<svg xmlns="http://www.w3.org/2000/svg" xmlns:xlink="http://www.w3.org/1999/xlink" width="625.115" height="402.597" viewBox="0 0 625.115 402.597">
  <defs>
    <filter id="Pfad_309" x="0" y="0" width="625.115" height="402.597" filterUnits="userSpaceOnUse">
      <feOffset dx="7" dy="10" input="SourceAlpha"/>
      <feGaussianBlur stdDeviation="2.5" result="blur"/>
      <feFlood flood-color="#c8463f" flood-opacity="0.4"/>
      <feComposite operator="in" in2="blur"/>
      <feComposite in="SourceGraphic"/>
    </filter>
    <filter id="Polygon_2" x="563.247" y="295.6" width="52.731" height="54.54" filterUnits="userSpaceOnUse">
      <feOffset dx="7" dy="10" input="SourceAlpha"/>
      <feGaussianBlur stdDeviation="2.5" result="blur-2"/>
      <feFlood flood-color="#c8463f" flood-opacity="0.4"/>
      <feComposite operator="in" in2="blur-2"/>
      <feComposite in="SourceGraphic"/>
    </filter>
  </defs>
  <g transform="matrix(1, 0, 0, 1, 0, 0)" filter="url(#Pfad_309)">
    <path id="Pfad_309-2" data-name="Pfad 309" d="M800.977,1060.178s-42.235,177.771,126.973,224.6c102.084,9.851,132.81,14.161,158.046-4.536,34.085-25.253,19.321-72.494-24.727-68.156-76.34,7.518-48.765,123.5,121.005,124.718s175.471-61.224,175.471-61.224" transform="translate(-523.13 -1189.2) rotate(11)" fill="none" stroke="#c8463f" stroke-linecap="round" stroke-width="5" stroke-dasharray="30"/>
  </g>
  <g transform="matrix(1, 0, 0, 1, 0, 0)" filter="url(#Polygon_2)">
    <path id="Polygon_2-2" data-name="Polygon 2" d="M9.633,4.872a2,2,0,0,1,3.735,0l8.591,22.412A2,2,0,0,1,20.091,30H2.909a2,2,0,0,1-1.867-2.716Z" transform="matrix(0.66, 0.75, -0.75, 0.66, 586.39, 295.6)" fill="#c8463f"/>
  </g>
</svg>
