<?xml version="1.0" encoding="utf-8"?>
<!-- Generator: Adobe Illustrator 27.1.1, SVG Export Plug-In . SVG Version: 6.00 Build 0)  -->
<svg version="1.1" id="Ebene_1" xmlns="http://www.w3.org/2000/svg" xmlns:xlink="http://www.w3.org/1999/xlink" x="0px" y="0px"
	 viewBox="0 0 747.2 746.5" style="enable-background:new 0 0 747.2 746.5;" xml:space="preserve">
<style type="text/css">
	.st0{display:none;}
	.st1{display:inline;fill-rule:evenodd;clip-rule:evenodd;fill:#2D2D2E;}
	.st2{display:inline;fill:none;}
	.st3{display:inline;fill-rule:evenodd;clip-rule:evenodd;fill:#CE5953;}
	.st4{display:inline;fill-rule:evenodd;clip-rule:evenodd;fill:#FFFFFF;}
	.st5{fill-rule:evenodd;clip-rule:evenodd;fill:#CE5953;}
	.st6{fill-rule:evenodd;clip-rule:evenodd;fill:#FFFFFF;}
	.st7{display:inline;}
	.st8{fill:#E95952;}
	.st9{opacity:0.5;fill:#8C0B1D;enable-background:new    ;}
	.st10{fill:#FFFFFF;}
	.st11{opacity:0.5;fill:#A7B1CA;enable-background:new    ;}
</style>
<g id="BG_negativ" class="st0">
	<rect x="-586.4" y="-175.4" class="st1" width="1920" height="1080"/>
</g>
<g id="negativ" class="st0">
	<path class="st2" d="M-93.1,810.5c0,0-0.5-0.5-42.5-65.9c-8-12.5-17.5-27.3-28.8-44.9c-0.2-0.3-0.4-0.7-0.6-1c-1-1.6-2.1-3.3-3.2-5
		c-7.9-12.3-16.7-26-26.4-41.1c-2.4-3.7-4.6-7.2-6.8-10.6c-90.2-138.7-18.8,18.3-18.8,18.3l17.6,29l13.2,21.8l45,74l58.6,69.1
		L-93.1,810.5z"/>
	<path class="st3" d="M169.5,240.3c-4.4-5.6-9.6-10.7-13.9-16.6c-3.3-4.5-8.6-7.6-10.8-13.2c-3.7-2.2-32.8-0.8-39.8-0.7
		c-0.7,1.1-1.3,2.2-2,3.3C46.7,308.3-9.7,403.6-66,498.8c-13,22.1-26.1,44.2-39.1,66.2c-5,8.2-10.5,20.7-24.7,14.9
		c-6.6-2.7-10.5-13.3-14.2-19.2c-9.7-15.6-19.4-31.2-29-46.8c-39-62.7-78.1-125.5-117.1-188.2c-1.8-1.6-24.8-0.5-29.3-0.5h-84.5
		c67.5,105.6,135,211.2,202.4,316.8c11,17.2,22,34.4,33,51.6c0.1,0,0.1,0,0.2,0.1l0,0c4.3,1.7,16.7,0.4,22.1,0.4h53.5
		c3.2-5.2,6.4-10.5,9.5-15.7c74.6-122.1,149-244.3,223.4-366.5c12.2-19.9,24.3-39.9,36.4-59.8C174.1,248.3,172.3,243.9,169.5,240.3z
		"/>
	<path class="st4" d="M433.5,293.1c-23.1,50.6-46.2,101.3-69.4,151.9c-0.2,0.1-0.3,0.2-0.5,0.2C339,394.5,314.5,343.7,289.9,293
		h-48.5c35.3,70,70.6,139.9,105.9,209.9h29c33.9-70,67.7-139.9,101.6-209.8H433.5L433.5,293.1z"/>
	<path class="st4" d="M526.8,293.1v209.8h42.5V293.1H526.8z"/>
	<path class="st4" d="M857.6,301.3c-12.2-9.4-34.5-8.2-56.2-8.2H683.3l-10.3,1c-9.3,1.8-17.9,4.8-22.6,11.3c-7.9,11.1-7.4,30-7.4,49
		V439c0,17.8-0.7,36.1,5.3,48c7.9,15.6,28.9,15.8,52.6,15.8h104.4c20.6,0,40.6,0.8,52.1-8.2c11.2-8.7,11.8-29.1,11.8-49V349
		C869.1,329.8,868.4,309.7,857.6,301.3z M826.4,462.8H685.5v-131h140.9V462.8z"/>
	<path class="st4" d="M1246.8,293.1c-23.1,50.6-46.2,101.3-69.4,151.9c-0.2,0.1-0.3,0.2-0.5,0.2c-24.6-50.7-49.1-101.5-73.7-152.2
		h-48.5c35.3,69.9,70.6,139.8,105.8,209.8h29c33.8-69.9,67.7-139.9,101.5-209.8L1246.8,293.1L1246.8,293.1z"/>
	<path class="st4" d="M923.6,345.2v51.1h96.2v-51.1H923.6z"/>
	<path class="st4" d="M201.4,344.9c-1-9.2-1.9-18.4-2.9-27.6c-4.4-22-8.4-42.8-15.1-61.9C142,137.4,57.5,53.7-63.8,15.7
		c-33.7-10.6-72-15.9-116.4-15.4c-3.8,0.2-7.7,0.3-11.5,0.5L-220,3.4c-26.7,5-51.7,8.9-74.4,17.8c-19.1,7.4-38.1,14.6-55,24.5
		c-70,40.9-127.3,96.2-161,173c-11.4,26-20,53.5-26.9,84.5c-15,67.8-2.9,149.9,17.5,201.8c39.4,100.2,108.2,171.5,206.2,213.1
		c40.4,17.2,88,29.3,145.7,28.6c-7.2-11.9-14.3-23.8-21.5-35.6c-4.4-7.2-8.7-14.5-13.1-21.7h-0.1c-10.5-1.7-21-3.3-31.6-5
		c-20.9-4.9-40.5-10.3-58.6-18c-85.8-36.5-143.1-99.9-177.4-188.2c-7.2-18.6-10.4-39.2-14.6-61c-8.5-44.2,0-101.1,10.8-135.6
		c30.5-97.4,94.5-163.7,184.3-201.8c18.8-8,39.5-13.4,61.7-18.2c10.1-2.2,20.2-2,31.2-3.8c11.1-1.8,33.9-2.7,45.8-0.7
		c7.4,0.7,14.9,1.4,22.3,2.2c17.9,3.4,34.9,6,50.9,11c80.4,25.4,141.2,75,180.7,143c8.8,15.1,16.5,31,23.1,47.8
		c6.1,15.6,10.9,32.8,14.2,50.9c10.2,56,6.7,120.4-12.5,169.6C94.4,567,37.2,629.1-45.8,664.9c-11.6,5-24,9.7-37.2,13.6
		c-25.7,7.7-54.6,12.6-87.1,12.1v0.2c0.6,1,1.3,2,1.9,3c1.1,1.7,2.1,3.3,3.2,5c0.2,0.3,0.4,0.7,0.6,1c9.5,14.9,19.1,29.9,28.6,44.8
		c0.1,0,0.1,0,0.2,0.1c3.8,1.3,17.1-1.4,21.2-2.2c18.9-3.8,36.2-6.8,52.8-12C9.5,708,72.2,667.2,113.6,615.2
		c30-37.7,55.4-76.9,71.8-128.6c6.5-20.5,10.1-42.1,14.4-65.5c1.8-10.1,0.6-20.4,2.4-31.2C204,378.1,203.2,356,201.4,344.9z"/>
</g>
<g id="positiv">
	<path class="st5" d="M649.1,209.6c7-0.1,36.1-1.4,39.8,0.7c2.2,5.7,7.5,8.7,10.8,13.2c4.3,5.9,9.5,10.9,13.9,16.6
		c2.8,3.6,4.6,8,7.2,11.8C631,399.3,541.3,546.6,451.5,694c-17.8,0-35.7,0-53.5,0c-5.5,0-18.2,1.3-22.3-0.5
		c-78.5-122.8-157-245.6-235.4-368.4c28.2,0,56.3,0,84.5,0c4.4,0,27.4-1.1,29.3,0.5c39,62.7,78.1,125.5,117.1,188.2
		c9.7,15.6,19.4,31.2,29,46.8c3.7,5.9,7.5,16.5,14.2,19.2c14.2,5.8,19.8-6.7,24.7-14.9c13-22.1,26.1-44.2,39.1-66.2
		C535.2,402.2,592.2,305.9,649.1,209.6z"/>
	<path class="st6" d="M363.8,0c44.4-0.5,82.7,4.8,116.4,15.4c121.3,38,205.8,121.7,247.2,239.8c6.7,19.1,10.7,39.9,15.1,61.9
		c1,9.2,1.9,18.4,2.9,27.6c1.8,11.1,2.6,33.2,0.7,44.9c-1.8,10.8-0.5,21.1-2.4,31.2c-4.3,23.4-7.9,45-14.4,65.5
		c-16.3,51.7-41.8,90.9-71.8,128.6c-41.3,52-104.1,92.8-175.2,115.2c-16.6,5.2-33.9,8.2-52.8,12c-4.1,0.8-17.9,3.7-21.4,2.2
		c-11.4-17.9-22.9-35.8-34.3-53.8c0-0.1,0-0.2,0-0.2c49.2,0.8,90-10.9,124.3-25.7c83-35.8,140.2-97.9,173.5-183.4
		C697,416,695,324.3,669.9,260.6C633.5,168,564.5,100.8,466.3,69.9c-16-5-33-7.7-50.9-11c-7.4-0.7-14.9-1.4-22.3-2.2
		c-11.9-2-34.7-1.1-45.8,0.7c-11,1.8-21,1.6-31.2,3.8c-22.2,4.9-42.9,10.3-61.7,18.2c-89.9,38.2-153.9,104.4-184.3,201.8
		c-10.8,34.5-19.3,91.4-10.8,135.6c4.2,21.7,7.4,42.3,14.6,61C108.2,566,165.5,629.5,251.3,666c18.1,7.7,37.7,13.1,58.6,18
		c10.6,1.7,21.1,3.4,31.7,5c11.5,19.1,23,38.2,34.6,57.4c-57.7,0.8-105.3-11.4-145.7-28.6C132.4,676.2,63.6,605,24.2,504.8
		C3.8,452.9-8.3,370.7,6.7,302.9c6.9-31,15.5-58.5,26.9-84.5c33.8-76.8,91.1-132.1,161-173c16.9-9.9,35.9-17,55-24.5
		c22.7-8.8,47.7-12.8,74.4-17.8c9.4-0.9,18.9-1.8,28.3-2.6C356.1,0.3,360,0.2,363.8,0z"/>
</g>
<g id="XMAS_Version" class="st0">
	<g id="_x30_6" class="st7">
		<path class="st8" d="M-291,21.2c0,0,2.2-37.3,110.1-89.8C-73-121,1.4-134.8,88.4-125.4s118.7,25.9,115.5,50.5
			c-3.2,24.7-31.5,64-7,95.7c24.5,31.8,12.8,62.5,38.6,83.7c25.8,21.2,37.4,113.9-63.7,92.1C99.1,156.9-190.3,5.4-291,21.2z"/>
		<path class="st9" d="M196.9,20.8c-20.3-26.4-4.2-58,3.6-82.1c-14.7-0.2-30.5,2.5-55.6,4.5c-3.5,0.3-6.7,0.4-9.6,0.4
			c-3.5-5.5-10.1-11.7-21-18.3c0,0-59.3-12.9-91.9-1.9c-30.3,10.3,38.9-0.1,60.8,24.7c-19,12.7-46.6,42.1-9,61.3
			c40.6,20.7,36,16.5,35.8,30.8c0,14,55.7,47.8,107.3,32.8C213.1,57,211,39.1,196.9,20.8z"/>
		<path class="st9" d="M252.4,155c0,0,0.9-27.6-75.7-26.7C100,129.3,7.8,89.8-45.9,52.5c-53.6-37.3-116.7-40.8-171.8-36.2
			c-11.6,1-14.3,4.4-11.5,9.2c126.6,26,340,137.8,401,171.1c56,12.1,77.4-11.1,81-37.7L252.4,155z"/>
		<path class="st10" d="M-81.7,69.4C-129.1,49.9-219.3,8.9-283.2,0.8c-63.8-8.1-123.1,9.4-121.5,57.9s108.7,83.7,187,120.5
			s299.6,133.1,362.9,125c63.3-8,116.9-62,52.2-104.3S-25,92.7-81.7,69.4z"/>
		<path class="st11" d="M219.6,220.6c-32.9-25.4-79.9,8.2-110.3-8.7c-30.7-17-42.6-46-135.2-38.7s-221.3-81.9-274-130.4
			c-43.6-40.2-87.2-15.6-100.8-6c-2.9,6.4-4.4,13.7-4.1,21.8c1.6,48.5,108.7,83.7,187,120.5s299.6,133.1,362.9,125
			C198.5,297.4,244.8,258.1,219.6,220.6z"/>
		<path class="st11" d="M-161.6,98.6c-17.9-10.4-51.2-5.3-20.5,11.7S-119.7,123-161.6,98.6z"/>
		<path class="st10" d="M235.1-82.3c-21.2-4.3-38-0.1-73,2.6c-34.9,2.7-38.7-8.5-57.4,2.2s-54,43.2-13.3,63.9
			C132,7.2,127.4,3,127.3,17.3S185,66.4,237.4,49.2s27.3-51.4,47.4-59.6C304.8-18.5,312.7-66.4,235.1-82.3z"/>
		<path class="st9" d="M-105.7-78.6c-14.8,5.5-48.2,32.3-7.5,17.8C-72.4-75.3-71.6-91.3-105.7-78.6z"/>
		<path class="st9" d="M-65.3-59.2c11.9-7.1-0.1-9-16.7-1.2C-98.6-52.7-86.4-46.6-65.3-59.2z"/>
		<path class="st11" d="M237.4,49.3c52.4-17.2,27.3-51.4,47.4-59.6c7.7-3.1,13.5-12.1,13.5-22.8c-4.7-2.5-22.5-8.4-63.7,9.2
			c-49.4,21.1-58.4,10.4-77.2-5.1c-18.7-15.4-53.8-35.3-84.5-11.3c-1.4,9.4,3.1,18.9,18.5,26.8C132,7.2,127.4,3,127.3,17.3
			C127.2,31.6,185,66.4,237.4,49.3z"/>
		<path class="st11" d="M212.5-26.7c8-4.6,4.1-12-10.5-5.5C187.3-25.7,191-14.5,212.5-26.7z"/>
		<path class="st8" d="M227.9,156.5c-3.3-8.4-33.8-13.8-57.5-8.9C146.8,152.5,234.8,174,227.9,156.5z"/>
	</g>
</g>
</svg>
