<?xml version="1.0" encoding="UTF-8"?>
<svg id="Ebene_1" data-name="Ebene 1" xmlns="http://www.w3.org/2000/svg" viewBox="0 0 1149.36 920.94">
  <defs>
    <style>
      .cls-1 {
        fill: #5a5a5a;
      }
    </style>
  </defs>
  <path class="cls-1" d="m974.89,634.09c-3.24,64.56-17.98,121.75-65.1,168.86-47.12,47.3-104.3,62.04-168.86,65.1-66.54,3.78-265.97,3.78-332.51,0-64.56-3.24-121.57-17.98-168.86-65.1-47.3-47.12-62.04-104.3-65.1-168.86-3.78-66.54-3.78-265.97,0-332.51,3.24-64.56,17.8-121.75,65.1-168.86,47.3-47.12,104.48-61.86,168.86-64.92,66.54-3.78,265.97-3.78,332.51,0,64.56,3.24,121.75,17.98,168.86,65.1,47.3,47.12,62.04,104.3,65.1,168.86,3.78,66.54,3.78,265.79,0,332.33Zm-69.77-166.16c0-58.62,4.86-184.51-16.18-237.56-14.21-35.43-41.36-62.58-76.61-76.61-52.87-20.86-178.93-16.18-237.56-16.18s-184.51-4.86-237.56,16.18c-35.43,14.21-62.58,41.36-76.61,76.61-20.86,52.87-16.19,178.93-16.19,237.56s-4.85,184.51,16.19,237.56c14.21,35.43,41.36,62.58,76.61,76.61,52.87,20.86,178.93,16.19,237.56,16.19s184.51,4.86,237.56-16.19c35.43-14.21,62.58-41.36,76.61-76.61,21.04-52.87,16.18-178.93,16.18-237.56Zm-123.72,0c0,114.37-92.25,206.63-206.63,206.63s-206.63-92.25-206.63-206.63,92.25-206.63,206.63-206.63,206.63,92.25,206.63,206.63Zm-72.29,0c0-74.09-60.24-134.33-134.33-134.33s-134.33,60.24-134.33,134.33,60.42,134.33,134.33,134.33,134.33-60.24,134.33-134.33Zm80.74-263.27c-26.61,0-48.19,21.58-48.19,48.19s21.4,48.19,48.19,48.19,48.2-21.4,48.2-48.19-21.58-48.19-48.2-48.19Z"/>
</svg>