<?xml version="1.0" encoding="UTF-8"?>
<svg id="Ebene_1" data-name="Ebene 1" xmlns="http://www.w3.org/2000/svg" viewBox="0 0 1149.36 920.94">
  <defs>
    <style>
      .cls-1 {
        fill: #5a5a5a;
      }
    </style>
  </defs>
  <path class="cls-1" d="m940.4,289.57c.58,8.18.58,16.36.58,24.54,0,249.46-189.87,536.9-536.9,536.9-106.91,0-206.23-30.96-289.77-84.71,15.19,1.75,29.79,2.34,45.57,2.34,88.22,0,169.42-29.79,234.27-80.62-82.96-1.75-152.48-56.09-176.44-130.87,11.69,1.75,23.37,2.92,35.64,2.92,16.94,0,33.88-2.34,49.66-6.43-86.46-17.53-151.32-93.48-151.32-185.2v-2.34c25.12,14.02,54.33,22.78,85.3,23.95-50.83-33.89-84.13-91.72-84.13-157.16,0-35.05,9.35-67.18,25.71-95.23,92.89,114.51,232.52,189.29,389.09,197.47-2.92-14.02-4.67-28.63-4.67-43.23,0-103.99,84.13-188.7,188.7-188.7,54.33,0,103.41,22.78,137.88,59.59,42.65-8.18,83.54-23.95,119.77-45.57-14.02,43.82-43.82,80.62-82.96,103.99,37.98-4.09,74.78-14.61,108.67-29.21-25.7,37.39-57.84,70.69-94.64,97.56h0Z"/>
</svg>