<?xml version="1.0" encoding="UTF-8"?>
<svg id="Ebene_1" data-name="Ebene 1" xmlns="http://www.w3.org/2000/svg" viewBox="0 0 1149.36 920.94">
  <defs>
    <style>
      .cls-1 {
        fill: #c8463f;
      }
    </style>
  </defs>
  <path class="cls-1" d="m1092.59,172.74v143.87c0,31.78-25.77,57.55-57.55,57.55h-115.09l-40.77,40.69c-10.81,10.8-25.43,16.86-40.7,16.86h-64.92l-44.04,132.57c-13.72,41.13-52.1,68.84-95.54,68.84h-170.08l-50.01,188.45c-7.07,24.71-29.64,41.74-55.33,41.74h-186.67c-38.23,0-65.84-36.69-55.33-73.39l73.17-284.85c10.5-36.76-17.1-73.35-55.33-73.35-42.87,0-77.63-34.71-77.63-77.58v-161.24c0-42.93,34.76-77.69,77.63-77.69h785.56v-14.39c0-23.84,19.24-43.16,43.16-43.16s43.16,19.31,43.16,43.16v14.39h28.77c31.83,0,57.55,25.77,57.55,57.55Zm-172.64,57.55H171.86v57.55h748.1v-57.55Zm-237.34,201.41h-165.48l-30.39,115.09h147.1c6.29,0,11.69-3.96,13.67-9.71l35.1-105.38Z"/>
</svg>