<?xml version="1.0" encoding="utf-8"?>
<!-- Generator: Adobe Illustrator 27.4.0, SVG Export Plug-In . SVG Version: 6.00 Build 0)  -->
<svg version="1.1" id="Ebene_1" xmlns="http://www.w3.org/2000/svg" xmlns:xlink="http://www.w3.org/1999/xlink" x="0px" y="0px"
	 viewBox="0 0 419.9 746.5" style="enable-background:new 0 0 419.9 746.5;" xml:space="preserve">
<style type="text/css">
	.st0{fill-rule:evenodd;clip-rule:evenodd;fill:#CE5953;}
	.st1{fill-rule:evenodd;clip-rule:evenodd;fill:#FFFFFF;}
</style>
<g id="positiv">
	<path class="st0" d="M419.9,694H398c-5.5,0-18.2,1.3-22.3-0.5c-78.5-122.8-157-245.6-235.4-368.4h84.5c4.4,0,27.4-1.1,29.3,0.5
		c39,62.7,78.1,125.5,117.1,188.2c9.7,15.6,19.4,31.2,29,46.8c3.7,5.9,7.5,16.5,14.2,19.2c1.8,0.7,4,1,5.5,1.2"/>
	<path class="st1" d="M419.9,59.8c-1.5-0.3-3-0.6-4.5-0.8c-7.4-0.7-14.9-1.4-22.3-2.2c-11.9-2-34.7-1.1-45.8,0.7
		c-11,1.8-21,1.6-31.2,3.8c-22.2,4.9-42.9,10.3-61.7,18.2c-89.9,38.2-153.9,104.4-184.3,201.8c-10.8,34.5-19.3,91.4-10.8,135.6
		c4.2,21.7,7.4,42.3,14.6,61C108.2,566,165.5,629.5,251.3,666c18.1,7.7,37.7,13.1,58.6,18c10.6,1.7,21.1,3.4,31.7,5
		c11.5,19.1,23,38.2,34.6,57.4c-57.7,0.8-105.3-11.4-145.7-28.6C132.4,676.2,63.6,605,24.2,504.8C3.8,452.9-8.3,370.7,6.7,302.9
		c6.9-31,15.5-58.5,26.9-84.5c33.8-76.8,91.1-132.1,161-173c16.9-9.9,35.9-17,55-24.5c22.7-8.8,47.7-12.8,74.4-17.8
		c9.4-0.9,18.9-1.8,28.3-2.6c3.8-0.2,7.7-0.3,11.5-0.5c19.9-0.2,38.6,0.7,56.1,2.8"/>
	<path class="st1" d="M419.9,743.9c-4.8,0.8-9.9,1.3-11.8,0.4c-11.4-17.9-22.9-35.8-34.3-53.8v-0.2c16.3,0.3,31.6-0.8,46.1-3"/>
</g>
</svg>
